<svg width="16" height="16" viewBox="0 0 16 16" fill="none" xmlns="http://www.w3.org/2000/svg">
<g clip-path="url(#clip0_64_403)">
<path d="M15.0631 0.688843H5.89643C5.66611 0.688843 5.47975 0.87524 5.47975 1.10559C5.47975 1.33593 5.66611 1.52234 5.89643 1.52234H14.0572L0.601817 14.9798C0.439043 15.1427 0.439043 15.4063 0.601817 15.5691C0.683183 15.6505 0.789824 15.6912 0.896426 15.6912C1.00303 15.6912 1.10963 15.6505 1.19104 15.5691L14.6464 2.1116V10.2737C14.6464 10.504 14.8328 10.6904 15.0631 10.6904C15.2934 10.6904 15.4798 10.504 15.4798 10.2737V1.10559C15.4798 0.87524 15.2934 0.688843 15.0631 0.688843Z" fill="#181A20"/>
</g>
<defs>
<clipPath id="clip0_64_403">
<rect width="15" height="15.94" fill="white" transform="translate(0.47998 0.0599365)"/>
</clipPath>
</defs>
</svg>
