<svg width="151" height="150" viewBox="0 0 151 150" fill="none" xmlns="http://www.w3.org/2000/svg">
<g clip-path="url(#clip0_64_440)">
<g clip-path="url(#clip1_64_440)">
<path d="M58.3554 73.498H35.485C34.5978 73.498 33.8779 74.2179 33.8779 75.1052V100.424C33.8779 101.311 34.5978 102.031 35.485 102.031C36.3723 102.031 37.0922 101.311 37.0922 100.424V76.7123H58.3554C59.2427 76.7123 59.9626 75.9925 59.9626 75.1052C59.9626 74.2179 59.2427 73.498 58.3554 73.498Z" fill="#EB6753"/>
<path d="M35.485 104.85C34.5978 104.85 33.8779 105.57 33.8779 106.457V109.01C33.8779 109.897 34.5978 110.617 35.485 110.617C36.3723 110.617 37.0922 109.897 37.0922 109.01V106.457C37.0922 105.57 36.3723 104.85 35.485 104.85Z" fill="#EB6753"/>
<path d="M126.025 41.3217C126.472 41.3217 126.917 41.1375 127.234 40.7755C127.82 40.108 127.754 39.093 127.086 38.5071L108.86 22.5131C108.194 21.9271 107.177 21.9941 106.593 22.6596C106.007 23.3271 106.073 24.3421 106.74 24.928L124.966 40.922C125.271 41.1898 125.65 41.3217 126.025 41.3217Z" fill="#EB6753"/>
<path d="M103.383 21.4543C103.83 21.4543 104.273 21.2701 104.591 20.9081C105.177 20.2406 105.111 19.2256 104.445 18.6397L103.644 17.9366C102.977 17.3506 101.963 17.4176 101.376 18.083C100.79 18.7506 100.856 19.7655 101.522 20.3514L102.323 21.0546C102.628 21.3224 103.006 21.4543 103.383 21.4543Z" fill="#EB6753"/>
<path d="M126.419 85.3661V68.3304H134.99C139.64 68.3304 141.805 62.5661 138.312 59.5018L79.2545 7.68758C77.3688 6.01609 74.4973 6.01609 72.6115 7.68758L47.6901 29.5446V22.8804H50.0688C51.483 22.8804 52.6401 21.7447 52.6401 20.3089V12.5303C52.6401 11.1161 51.483 9.95901 50.0688 9.95901H24.0759C22.6616 9.95901 21.5045 11.1161 21.5045 12.5303V20.3089C21.5045 21.7447 22.6616 22.8804 24.0759 22.8804H26.4545V48.1875L13.5973 59.5018C10.083 62.5661 12.2687 68.3304 16.9187 68.3304H25.5116V140.352H20.9688C20.0901 140.352 19.3616 141.08 19.3616 141.959C19.3616 142.837 20.0901 143.566 20.9688 143.566H130.941C131.84 143.566 132.548 142.837 132.548 141.959C132.548 141.08 131.84 140.352 130.941 140.352H126.419V123.102C134.262 120.423 139.94 112.987 139.94 104.223C139.94 95.4804 134.262 88.0447 126.419 85.3661ZM24.7187 19.6661V13.1733H49.4258V19.6661H24.7187ZM44.4758 22.9018V32.3732L29.6687 45.3589V22.9018H44.4758ZM16.9187 65.1161C15.2259 65.1161 14.4331 63.016 15.6973 61.9018L74.733 10.0876C75.0759 9.78756 75.5045 9.63754 75.933 9.63754C76.3615 9.63754 76.7901 9.78756 77.133 10.0876L136.19 61.9018C137.455 63.016 136.683 65.1161 134.99 65.1161H16.9187ZM123.205 140.352C84.333 140.352 86.6472 140.352 28.7259 140.352V68.3304H123.205V84.5519C114.676 83.159 105.826 87.5303 101.948 95.759H77.5615V88.6661C77.5615 84.9161 74.5402 81.8946 70.7902 81.8946C67.083 81.8946 64.0401 84.9376 64.0401 88.6661V119.823C64.0401 123.509 67.0187 126.595 70.7902 126.595C74.5402 126.595 77.5615 123.552 77.5615 119.823V112.709H101.948C105.333 119.888 112.49 124.195 119.99 124.195C121.019 124.195 122.348 124.066 123.205 123.916V140.352ZM100.726 109.495H67.2544V98.9732C67.2544 98.9732 71.2401 98.9947 100.726 98.9732C99.8902 102.08 99.7615 105.916 100.726 109.495ZM74.3472 112.709V119.823C74.3472 121.773 72.7615 123.38 70.7902 123.38C68.8615 123.38 67.2544 121.795 67.2544 119.823V112.709H74.3472ZM67.2544 95.759V88.6661C67.2544 86.6947 68.8401 85.1089 70.7902 85.1089C72.7615 85.1089 74.3472 86.716 74.3472 88.6661V95.759H67.2544ZM119.99 120.98C115.64 120.98 111.698 119.287 108.698 116.566C105.719 113.845 103.726 110.073 103.319 105.916C102.333 96.0161 110.198 87.509 119.99 87.509C129.162 87.509 136.726 94.9875 136.726 104.223C136.726 113.566 129.076 120.98 119.99 120.98Z" fill="#181A20"/>
<path d="M119.989 87.509C110.197 87.509 102.332 96.0161 103.318 105.916C103.725 110.073 105.718 113.845 108.697 116.566C111.696 119.288 115.639 120.98 119.989 120.98C129.075 120.98 136.725 113.566 136.725 104.223C136.725 94.9876 129.161 87.509 119.989 87.509ZM124.297 111.38C120.354 111.38 117.161 108.166 117.161 104.245C117.161 100.302 120.354 97.0875 124.297 97.0875C128.239 97.0875 131.454 100.302 131.454 104.245C131.454 108.166 128.239 111.38 124.297 111.38Z" fill="url(#paint0_linear_64_440)"/>
<path d="M74.3472 88.6661V95.759H67.2544V88.6661C67.2544 86.6947 68.8401 85.1089 70.7901 85.1089C72.7615 85.1089 74.3472 86.716 74.3472 88.6661Z" fill="#DDDDDD"/>
<path d="M74.3472 112.709V119.823C74.3472 121.773 72.7615 123.38 70.7901 123.38C68.8615 123.38 67.2544 121.795 67.2544 119.823V112.709H74.3472Z" fill="#DDDDDD"/>
<path d="M24.7183 13.1743H49.4254V19.6672H24.7183V13.1743Z" fill="url(#paint1_linear_64_440)"/>
<path d="M44.476 22.9019V32.3732L29.6689 45.359V22.9019H44.476Z" fill="url(#paint2_linear_64_440)"/>
<path d="M75.9543 30.0376C68.9685 30.0376 63.2686 35.7375 63.2686 42.7233C63.2686 49.709 68.9685 55.3875 75.9543 55.3875C82.94 55.3875 88.6186 49.709 88.6186 42.7233C88.6186 35.7375 82.94 30.0376 75.9543 30.0376ZM75.9543 52.1732C70.7471 52.1732 66.4829 47.9304 66.4829 42.7233C66.4829 37.4947 70.7471 33.2519 75.9543 33.2519C81.1614 33.2519 85.4043 37.4947 85.4043 42.7233C85.4044 47.9304 81.1614 52.1732 75.9543 52.1732Z" fill="#181A20"/>
<path d="M85.4044 42.7232C85.4044 47.9303 81.1614 52.1732 75.9543 52.1732C70.7472 52.1732 66.4829 47.9303 66.4829 42.7232C66.4829 37.4946 70.7472 33.2518 75.9543 33.2518C81.1614 33.2518 85.4044 37.4946 85.4044 42.7232Z" fill="#DDDDDD"/>
<path d="M86.3464 121.08H87.3226C88.2099 121.08 88.9298 120.361 88.9298 119.473C88.9298 118.586 88.2099 117.866 87.3226 117.866H86.3464C85.4591 117.866 84.7393 118.586 84.7393 119.473C84.7393 120.361 85.4591 121.08 86.3464 121.08Z" fill="#EB6753"/>
<path d="M92.7908 121.08H101.635C102.523 121.08 103.243 120.361 103.243 119.473C103.243 118.586 102.523 117.866 101.635 117.866H92.7908C91.9035 117.866 91.1836 118.586 91.1836 119.473C91.1836 120.361 91.9035 121.08 92.7908 121.08Z" fill="#EB6753"/>
<path d="M124.298 97.0875C120.355 97.0875 117.162 100.302 117.162 104.245C117.162 108.166 120.355 111.38 124.298 111.38C128.24 111.38 131.455 108.166 131.455 104.245C131.455 100.302 128.24 97.0875 124.298 97.0875ZM124.298 108.166C122.133 108.166 120.376 106.409 120.376 104.245C120.376 102.08 122.133 100.302 124.298 100.302C126.462 100.302 128.24 102.08 128.24 104.245C128.24 106.409 126.462 108.166 124.298 108.166Z" fill="#181A20"/>
</g>
</g>
<defs>
<linearGradient id="paint0_linear_64_440" x1="119.98" y1="87.509" x2="119.98" y2="120.98" gradientUnits="userSpaceOnUse">
<stop stop-color="#DDDDDD" stop-opacity="0"/>
<stop offset="1" stop-color="#DDDDDD"/>
</linearGradient>
<linearGradient id="paint1_linear_64_440" x1="37.0718" y1="13.1743" x2="37.0718" y2="19.6672" gradientUnits="userSpaceOnUse">
<stop stop-color="#DDDDDD" stop-opacity="0"/>
<stop offset="1" stop-color="#DDDDDD"/>
</linearGradient>
<linearGradient id="paint2_linear_64_440" x1="37.0725" y1="22.9019" x2="37.0725" y2="45.359" gradientUnits="userSpaceOnUse">
<stop stop-color="#DDDDDD" stop-opacity="0"/>
<stop offset="1" stop-color="#DDDDDD"/>
</linearGradient>
<clipPath id="clip0_64_440">
<rect width="150" height="150" fill="white" transform="translate(0.949707)"/>
</clipPath>
<clipPath id="clip1_64_440">
<rect width="150" height="150" fill="white" transform="translate(0.949707)"/>
</clipPath>
</defs>
</svg>
