<svg width="151" height="150" viewBox="0 0 151 150" fill="none" xmlns="http://www.w3.org/2000/svg">
<g clip-path="url(#clip0_64_375)">
<g clip-path="url(#clip1_64_375)">
<path d="M45.4401 73.6758H28.2178C27.3305 73.6758 26.6106 74.3957 26.6106 75.2829V92.8046C26.6106 93.6918 27.3305 94.4117 28.2178 94.4117C29.105 94.4117 29.8249 93.6918 29.8249 92.8046V76.8901H45.4401C46.3274 76.8901 47.0473 76.1702 47.0473 75.2829C47.0473 74.3957 46.3274 73.6758 45.4401 73.6758Z" fill="#EB6753"/>
<path d="M28.2178 97.9462C27.3305 97.9462 26.6106 98.666 26.6106 99.5533V101.732C26.6106 102.619 27.3305 103.339 28.2178 103.339C29.105 103.339 29.8249 102.619 29.8249 101.732V99.5533C29.8249 98.666 29.105 97.9462 28.2178 97.9462Z" fill="#EB6753"/>
<path d="M101.657 21.5587C101.071 22.2263 101.138 23.2433 101.803 23.8271L125.339 44.4772C126.005 45.0612 127.02 44.9992 127.607 44.3307C128.193 43.6632 128.126 42.6462 127.461 42.0623L103.925 21.4122C103.258 20.8263 102.245 20.8891 101.657 21.5587Z" fill="#EB6753"/>
<path d="M95.5796 16.2309C94.9957 16.8984 95.0627 17.9134 95.7303 18.4993L96.7117 19.3594C97.3898 19.9492 98.3996 19.8695 98.9801 19.2087C99.564 18.5412 99.497 17.5262 98.8294 16.9403L97.848 16.0802C97.1805 15.4985 96.1655 15.5612 95.5796 16.2309Z" fill="#EB6753"/>
<path d="M72.0291 29.8982C64.9577 29.8982 59.2148 35.6625 59.2148 42.7339C59.2148 49.784 64.9577 55.5268 72.0291 55.5268C79.079 55.5268 84.8219 49.784 84.8219 42.7339C84.8219 35.6625 79.079 29.8982 72.0291 29.8982ZM72.0291 52.3125C66.7363 52.3125 62.4291 48.0054 62.4291 42.7339C62.4291 37.4196 66.7363 33.1125 72.0291 33.1125C77.3005 33.1125 81.6076 37.4196 81.6076 42.7339C81.6076 48.0054 77.3005 52.3125 72.0291 52.3125Z" fill="#181A20"/>
<path d="M53.0864 114.027C53.0864 114.927 52.3579 115.634 51.4792 115.634H49.2292C48.3293 115.634 47.6221 114.927 47.6221 114.027C47.6221 113.148 48.3293 112.42 49.2292 112.42H51.4792C52.3579 112.42 53.0864 113.148 53.0864 114.027Z" fill="#181A20"/>
<path d="M114.633 96.8768H99.0053C98.118 96.8768 97.3982 97.5967 97.3982 98.484C97.3982 99.3712 98.118 100.091 99.0053 100.091H114.633C115.52 100.091 116.24 99.3712 116.24 98.484C116.24 97.5967 115.52 96.8768 114.633 96.8768Z" fill="#EB6753"/>
<path d="M93.4703 96.8768H93.1501C92.2629 96.8768 91.543 97.5967 91.543 98.484C91.543 99.3712 92.2629 100.091 93.1501 100.091H93.4703C94.3576 100.091 95.0774 99.3712 95.0774 98.484C95.0774 97.5967 94.3576 96.8768 93.4703 96.8768Z" fill="#EB6753"/>
<path d="M140.301 105.412H125.965V68.341H131.043C135.715 68.341 137.879 62.5553 134.386 59.491L75.3291 7.67674C73.4221 6.00538 70.572 6.00538 68.6649 7.67674L43.7649 29.5554V22.8911H46.122C47.5578 22.8911 48.7149 21.7339 48.7149 20.3196V12.5411C48.7149 11.1267 47.5578 9.96962 46.122 9.96962H20.1505C18.7149 9.96962 17.5578 11.1267 17.5578 12.5411V20.3196C17.5578 21.7339 18.7149 22.8911 20.1505 22.8911H22.5292V48.1982L9.65063 59.491C6.15775 62.5767 8.34351 68.341 12.9935 68.341H18.0721V140.363H12.4363C11.5578 140.363 10.8292 141.07 10.8292 141.97C10.8292 142.848 11.5578 143.577 12.4363 143.577H12.5649H140.301C142.358 143.577 144.029 141.884 144.029 139.827V109.141C144.029 107.084 142.358 105.412 140.301 105.412ZM20.7721 19.6768V13.1839H45.5006V19.6768H20.7721ZM40.5506 22.8911V32.3625L25.7435 45.3696V22.8911H40.5506ZM12.9935 65.1267C11.3005 65.1267 10.5077 63.0268 11.772 61.9124L70.7863 10.0982C71.472 9.49823 72.522 9.49823 73.2077 10.0982L132.265 61.9124C133.529 63.0268 132.758 65.1267 131.043 65.1267H12.9935ZM39.0291 90.2625V140.363H21.2863V68.341H122.751V105.412H79.2506V90.2625C79.2506 87.091 76.6577 84.4982 73.4863 84.4982H44.8149C41.622 84.4982 39.0291 87.091 39.0291 90.2625ZM76.0363 105.455C74.2364 105.712 72.822 107.32 72.822 109.141C72.8435 121.891 72.7791 139.72 72.8649 140.363H42.2434V90.2625C42.2434 88.8696 43.4006 87.7125 44.8148 87.7125H73.4863C74.8792 87.7125 76.0363 88.8696 76.0363 90.2625V105.455ZM140.815 139.827C140.815 140.127 140.579 140.363 140.301 140.363H76.5505C76.4005 140.363 76.0577 140.127 76.0577 139.848V109.141C76.0577 108.863 76.3363 108.627 76.5505 108.627C77.7935 108.648 123.093 108.627 140.301 108.627C140.579 108.627 140.815 108.863 140.815 109.141V139.827Z" fill="#181A20"/>
<path d="M73.4863 87.7125H44.8149C43.4007 87.7125 42.2434 88.8696 42.2434 90.2625V140.363H72.8649C72.7791 139.72 72.8435 121.891 72.822 109.141C72.822 107.32 74.2364 105.712 76.0363 105.455V90.2625C76.0363 88.8696 74.8792 87.7125 73.4863 87.7125ZM51.4791 115.634H49.2291C48.3292 115.634 47.622 114.927 47.622 114.027C47.622 113.148 48.3292 112.42 49.2291 112.42H51.4791C52.3578 112.42 53.0863 113.148 53.0863 114.027C53.0863 114.927 52.3578 115.634 51.4791 115.634Z" fill="url(#paint0_linear_64_375)"/>
<path d="M20.7715 13.1829H45.5001V19.6757H20.7715V13.1829Z" fill="url(#paint1_linear_64_375)"/>
<path d="M40.5505 22.8911V32.3625L25.7434 45.3697V22.8911H40.5505Z" fill="url(#paint2_linear_64_375)"/>
<path d="M81.6077 42.7338C81.6077 48.0053 77.3006 52.3125 72.0291 52.3125C66.7363 52.3125 62.4292 48.0053 62.4292 42.7338C62.4292 37.4196 66.7363 33.1124 72.0291 33.1124C77.3006 33.1124 81.6077 37.4196 81.6077 42.7338Z" fill="#DDDDDD"/>
<path d="M89.3219 118.805C86.1933 118.805 83.6433 121.355 83.6433 124.484C83.6433 127.634 86.1933 130.184 89.3219 130.184C92.4719 130.184 95.0004 127.634 95.0004 124.484C95.0004 121.355 92.4719 118.805 89.3219 118.805ZM89.3219 126.97C87.9719 126.97 86.8576 125.855 86.8576 124.484C86.8576 123.134 87.9719 122.02 89.3219 122.02C90.6934 122.02 91.7861 123.134 91.7861 124.484C91.7861 125.855 90.6934 126.97 89.3219 126.97Z" fill="#181A20"/>
<path d="M91.7862 124.484C91.7862 125.855 90.6935 126.97 89.322 126.97C87.972 126.97 86.8577 125.855 86.8577 124.484C86.8577 123.134 87.972 122.02 89.322 122.02C90.6935 122.02 91.7862 123.134 91.7862 124.484Z" fill="#DDDDDD"/>
<path d="M127.529 118.805C124.401 118.805 121.851 121.355 121.851 124.484C121.851 127.634 124.401 130.184 127.529 130.184C130.658 130.184 133.208 127.634 133.208 124.484C133.208 121.355 130.658 118.805 127.529 118.805ZM127.529 126.97C126.158 126.97 125.065 125.855 125.065 124.484C125.065 123.134 126.158 122.02 127.529 122.02C128.901 122.02 129.993 123.134 129.993 124.484C129.993 125.855 128.901 126.97 127.529 126.97Z" fill="#181A20"/>
<path d="M129.993 124.484C129.993 125.855 128.901 126.97 127.529 126.97C126.158 126.97 125.065 125.855 125.065 124.484C125.065 123.134 126.158 122.02 127.529 122.02C128.901 122.02 129.993 123.134 129.993 124.484Z" fill="#DDDDDD"/>
<path d="M108.428 117.041C110.04 117.041 111.352 118.351 111.352 119.963C111.352 120.85 112.072 121.57 112.959 121.57C113.846 121.57 114.566 120.85 114.566 119.963C114.566 117.139 112.637 114.779 110.036 114.068V112.875C110.036 111.988 109.316 111.268 108.428 111.268C107.541 111.268 106.821 111.988 106.821 112.875V114.068C104.22 114.779 102.291 117.139 102.291 119.963C102.291 123.347 105.045 126.1 108.428 126.1C110.04 126.1 111.352 127.412 111.352 129.024C111.352 130.635 110.04 131.945 108.428 131.945C106.817 131.945 105.505 130.635 105.505 129.024C105.505 128.137 104.785 127.417 103.898 127.417C103.011 127.417 102.291 128.137 102.291 129.024C102.291 131.848 104.22 134.208 106.821 134.919V136.112C106.821 136.999 107.541 137.719 108.428 137.719C109.316 137.719 110.036 136.999 110.036 136.112V134.919C112.637 134.208 114.566 131.848 114.566 129.024C114.566 125.64 111.812 122.886 108.428 122.886C106.817 122.886 105.505 121.574 105.505 119.963C105.505 118.351 106.817 117.041 108.428 117.041Z" fill="#181A20"/>
</g>
</g>
<defs>
<linearGradient id="paint0_linear_64_375" x1="59.1399" y1="87.7125" x2="59.1399" y2="140.363" gradientUnits="userSpaceOnUse">
<stop stop-color="#DDDDDD" stop-opacity="0"/>
<stop offset="1" stop-color="#DDDDDD"/>
</linearGradient>
<linearGradient id="paint1_linear_64_375" x1="33.1358" y1="13.1829" x2="33.1358" y2="19.6757" gradientUnits="userSpaceOnUse">
<stop stop-color="#DDDDDD" stop-opacity="0"/>
<stop offset="1" stop-color="#DDDDDD"/>
</linearGradient>
<linearGradient id="paint2_linear_64_375" x1="33.1469" y1="22.8911" x2="33.1469" y2="45.3697" gradientUnits="userSpaceOnUse">
<stop stop-color="#DDDDDD" stop-opacity="0"/>
<stop offset="1" stop-color="#DDDDDD"/>
</linearGradient>
<clipPath id="clip0_64_375">
<rect width="150" height="150" fill="white" transform="translate(0.97998)"/>
</clipPath>
<clipPath id="clip1_64_375">
<rect width="150" height="150" fill="white" transform="translate(0.97998)"/>
</clipPath>
</defs>
</svg>
