<svg width="151" height="150" viewBox="0 0 151 150" fill="none" xmlns="http://www.w3.org/2000/svg">
<g clip-path="url(#clip0_64_408)">
<g clip-path="url(#clip1_64_408)">
<path d="M10.5544 96.2051C11.4417 96.2051 12.1616 95.4853 12.1616 94.598V93.8802C12.1616 92.9929 11.4417 92.2731 10.5544 92.2731C9.66714 92.2731 8.94727 92.9929 8.94727 93.8802V94.598C8.94727 95.4853 9.66714 96.2051 10.5544 96.2051Z" fill="#EB6753"/>
<path d="M8.94727 123.462C8.94727 124.349 9.66714 125.069 10.5544 125.069C11.4417 125.069 12.1616 124.349 12.1616 123.462V100.179C12.1616 99.2918 11.4417 98.5719 10.5544 98.5719C9.66714 98.5719 8.94727 99.2918 8.94727 100.179V123.462Z" fill="#EB6753"/>
<path d="M104.572 26.7109C103.904 26.125 102.891 26.1899 102.303 26.8574C101.718 27.525 101.784 28.5399 102.45 29.1258L121.041 45.44C121.707 46.024 122.722 45.962 123.309 45.2935C123.895 44.626 123.828 43.611 123.163 43.0251L104.572 26.7109Z" fill="#EB6753"/>
<path d="M98.0912 21.0252C97.4237 20.4434 96.4108 20.5083 95.8227 21.1758C95.2389 21.8434 95.3059 22.8583 95.9735 23.4442L97.1265 24.455C97.8046 25.0448 98.8144 24.9651 99.3949 24.3043C99.9788 23.6368 99.9118 22.6218 99.2443 22.0359L98.0912 21.0252Z" fill="#EB6753"/>
<path d="M122.807 87.7156V82.9156H124.671C125.549 82.9156 126.278 82.2085 126.278 81.3085C126.278 80.4299 125.549 79.7014 124.671 79.7014H121.778V68.5799H126.642C131.185 68.5799 133.328 62.9442 129.899 59.9441L72.7282 9.77992C70.8853 8.15132 68.0782 8.15132 66.2139 9.77992L42.1925 30.8656V24.587H44.4426C45.8353 24.587 46.9711 23.4514 46.9711 22.037V14.5155C46.9711 13.1013 45.8353 11.9655 44.4426 11.9655H19.264C17.8711 11.9655 16.7355 13.1013 16.7355 14.5155V22.037C16.7355 23.4513 17.8711 24.587 19.264 24.587H21.5354V49.0156L9.08543 59.9442C5.67822 62.9442 7.79963 68.5799 12.3425 68.5799H17.2068V138.094C15.5353 138.137 13.8211 138.158 12.1497 138.201C11.2496 138.244 10.564 138.973 10.5853 139.851C10.6068 140.73 11.314 141.416 12.1925 141.416H12.2139C13.2426 141.394 117.621 141.458 117.621 141.437C132.492 141.33 144.535 129.201 144.535 114.287C144.535 101.173 135.192 90.2227 122.807 87.7156ZM19.9497 21.3727V15.1798H43.7568V21.3727H19.9497ZM38.9782 24.587V33.6941L24.7497 46.187V24.587H38.9782ZM12.3425 65.3656C10.7568 65.3656 10.0068 63.3941 11.2068 62.3441L68.3353 12.1799C68.9996 11.6227 69.9639 11.6227 70.6068 12.1799L127.778 62.3441C128.978 63.3941 128.228 65.3656 126.642 65.3656H12.3425ZM70.3496 138.03H37.7354V89.7727C37.7354 88.4227 38.8283 87.3512 40.1782 87.3512H67.9282C69.2567 87.3512 70.3496 88.4227 70.3496 89.7727V138.03ZM73.5639 138.03V89.7727C73.5639 86.6656 71.0354 84.137 67.9282 84.137H40.1782C37.0711 84.137 34.5211 86.6656 34.5211 89.7727V138.03H20.4211V68.6012H118.564V79.7014H110.057C109.156 79.7014 108.449 80.4299 108.449 81.3085C108.449 82.2085 109.156 82.9156 110.057 82.9156H112.006V87.7156C99.5782 90.2442 90.2782 101.408 90.2782 114.287V114.308C90.2996 124.444 96.0425 133.444 104.485 138.03H73.5639ZM119.592 82.9156V87.2656C118.435 87.1584 116.485 87.1584 115.221 87.2656V82.9156H119.592ZM117.428 138.223C104.057 138.223 93.4925 127.251 93.4925 114.287C93.4925 101.173 104.335 90.1798 117.835 90.3942C130.692 90.6299 141.321 101.13 141.321 114.287C141.321 127.487 130.606 138.223 117.428 138.223Z" fill="#181A20"/>
<path d="M119.592 82.9156V87.2656C118.435 87.1585 116.485 87.1585 115.221 87.2656V82.9156H119.592Z" fill="#DDDDDD"/>
<path d="M19.9497 15.1799H43.7568V21.3728H19.9497V15.1799Z" fill="url(#paint0_linear_64_408)"/>
<path d="M38.978 24.587V33.6942L24.7495 46.1871V24.587H38.978Z" fill="url(#paint1_linear_64_408)"/>
<path d="M67.9282 87.3512H40.1782C38.8283 87.3512 37.7354 88.4226 37.7354 89.7726V138.03H70.3496V89.7726C70.3496 88.4226 69.2568 87.3512 67.9282 87.3512ZM63.8783 114.373H61.6925C60.7926 114.373 60.0854 113.666 60.0854 112.766C60.0854 111.887 60.7926 111.158 61.6925 111.158H63.8783C64.7568 111.158 65.4854 111.887 65.4854 112.766C65.4854 113.666 64.7568 114.373 63.8783 114.373Z" fill="url(#paint2_linear_64_408)"/>
<path d="M69.5138 31.2727C62.6353 31.2727 57.0425 36.8655 57.0425 43.7442C57.0425 50.6013 62.6353 56.1727 69.5138 56.1727C76.371 56.1727 81.9425 50.6013 81.9425 43.7442C81.9425 36.8655 76.371 31.2727 69.5138 31.2727ZM69.5138 52.9584C64.4139 52.9584 60.2568 48.8227 60.2568 43.7442C60.2568 38.6442 64.4139 34.487 69.5138 34.487C74.5925 34.487 78.7282 38.6441 78.7282 43.7442C78.7282 48.8227 74.5925 52.9584 69.5138 52.9584Z" fill="#181A20"/>
<path d="M78.7282 43.7441C78.7282 48.8227 74.5925 52.9584 69.5138 52.9584C64.4139 52.9584 60.2568 48.8227 60.2568 43.7441C60.2568 38.6441 64.4139 34.4869 69.5138 34.4869C74.5925 34.4869 78.7282 38.6441 78.7282 43.7441Z" fill="#DDDDDD"/>
<path d="M65.4854 112.766C65.4854 113.666 64.7568 114.373 63.8783 114.373H61.6925C60.7926 114.373 60.0854 113.666 60.0854 112.766C60.0854 111.887 60.7926 111.158 61.6925 111.158H63.8783C64.7568 111.158 65.4854 111.887 65.4854 112.766Z" fill="#181A20"/>
<path d="M96.6366 89.2764C96.9819 89.2764 97.3314 89.1655 97.6264 88.9332C97.8733 88.7407 98.1245 88.5482 98.3777 88.364C99.0955 87.8409 99.2524 86.8364 98.7313 86.1186C98.2082 85.4008 97.2037 85.2397 96.4859 85.765C96.1993 85.9742 95.9188 86.1877 95.6426 86.4053C94.9437 86.9515 94.8223 87.9622 95.3706 88.6612C95.6866 89.0651 96.1595 89.2764 96.6366 89.2764Z" fill="#EB6753"/>
<path d="M84.0286 108.782C84.1416 108.807 84.2546 108.817 84.3676 108.817C85.1083 108.817 85.7759 108.301 85.9371 107.547C87.1508 101.883 89.8963 96.6321 93.8786 92.3652C94.4855 91.7165 94.4499 90.6995 93.8012 90.0947C93.1525 89.4878 92.1375 89.5234 91.5307 90.1721C87.1508 94.8659 84.129 100.642 82.7939 106.873C82.6077 107.742 83.1601 108.596 84.0286 108.782Z" fill="#EB6753"/>
<path d="M117.421 96.0754C116.533 96.0754 115.814 96.7953 115.814 97.6826C115.814 98.5699 116.533 99.2897 117.421 99.2897C125.693 99.2897 132.423 106.02 132.423 114.292C132.423 122.572 125.693 129.311 117.421 129.311C112.141 129.311 107.343 126.615 104.591 122.099C104.128 121.344 103.141 121.103 102.381 121.564C101.623 122.026 101.383 123.016 101.845 123.774C105.187 129.254 111.011 132.525 117.421 132.525C127.465 132.525 135.637 124.345 135.637 114.292C135.637 104.247 127.465 96.0754 117.421 96.0754Z" fill="#181A20"/>
<path d="M119.014 111.608V105.158C119.014 104.28 118.306 103.551 117.407 103.551C116.528 103.551 115.799 104.28 115.799 105.158V111.608C113.528 112.294 111.856 114.394 111.856 116.901C111.856 119.966 114.342 122.451 117.407 122.451C120.471 122.451 122.978 119.966 122.978 116.901C122.978 114.394 121.307 112.294 119.014 111.608ZM117.407 119.237C116.121 119.237 115.071 118.187 115.071 116.901C115.071 115.616 116.121 114.544 117.407 114.544C118.692 114.544 119.764 115.616 119.764 116.901C119.764 118.187 118.692 119.237 117.407 119.237Z" fill="#181A20"/>
<path d="M119.764 116.901C119.764 118.187 118.692 119.237 117.407 119.237C116.121 119.237 115.071 118.187 115.071 116.901C115.071 115.615 116.121 114.544 117.407 114.544C118.692 114.544 119.764 115.615 119.764 116.901Z" fill="#DDDDDD"/>
</g>
</g>
<defs>
<linearGradient id="paint0_linear_64_408" x1="31.8533" y1="15.1799" x2="31.8533" y2="21.3728" gradientUnits="userSpaceOnUse">
<stop stop-color="#DDDDDD" stop-opacity="0"/>
<stop offset="1" stop-color="#DDDDDD"/>
</linearGradient>
<linearGradient id="paint1_linear_64_408" x1="31.8637" y1="24.587" x2="31.8637" y2="46.1871" gradientUnits="userSpaceOnUse">
<stop stop-color="#DDDDDD" stop-opacity="0"/>
<stop offset="1" stop-color="#DDDDDD"/>
</linearGradient>
<linearGradient id="paint2_linear_64_408" x1="54.0425" y1="87.3512" x2="54.0425" y2="138.03" gradientUnits="userSpaceOnUse">
<stop stop-color="#DDDDDD" stop-opacity="0"/>
<stop offset="1" stop-color="#DDDDDD"/>
</linearGradient>
<clipPath id="clip0_64_408">
<rect width="150" height="150" fill="white" transform="translate(0.970215)"/>
</clipPath>
<clipPath id="clip1_64_408">
<rect width="150" height="150" fill="white" transform="translate(0.970215)"/>
</clipPath>
</defs>
</svg>
